<?xml version="1.0" encoding="utf-8"?>
<!-- Generator: Adobe Illustrator 24.0.2, SVG Export Plug-In . SVG Version: 6.00 Build 0)  -->
<svg version="1.1" id="Layer_1" xmlns="http://www.w3.org/2000/svg" xmlns:xlink="http://www.w3.org/1999/xlink" x="0px" y="0px"
	 viewBox="0 0 67 50" style="enable-background:new 0 0 67 50;" xml:space="preserve">
<style type="text/css">
	.st0{filter:url(#Adobe_OpacityMaskFilter);}
	.st1{fill-rule:evenodd;clip-rule:evenodd;fill:#FFFFFF;}
	.st2{mask:url(#danfo3d-b_1_);fill-rule:evenodd;clip-rule:evenodd;fill-opacity:0.395;}
	.st3{fill-rule:evenodd;clip-rule:evenodd;}
	.st4{filter:url(#Adobe_OpacityMaskFilter_1_);}
	.st5{mask:url(#danfo3d-d_1_);fill-rule:evenodd;clip-rule:evenodd;fill:#FFFFFF;}
	.st6{fill-rule:evenodd;clip-rule:evenodd;fill:#FFAA00;}
	.st7{fill-rule:evenodd;clip-rule:evenodd;fill:#ED8063;}
	.st8{fill:none;stroke:#000000;stroke-width:0.5;stroke-linecap:round;}
</style>
<g transform="matrix(-1 0 0 1 66 1)">
	<g transform="translate(15.643 10.283)">
		<defs>
			<filter id="Adobe_OpacityMaskFilter" filterUnits="userSpaceOnUse">
				<feColorMatrix  type="matrix" values="1 0 0 0 0  0 1 0 0 0  0 0 1 0 0  0 0 0 1 0"/>
			</filter>
		</defs>
		<mask maskUnits="userSpaceOnUse" id="danfo3d-b_1_">
			<g class="st0">
				<polygon id="danfo3d-a_1_" class="st1" points="-0.4,1.2 50,1.2 50,37.7 -0.4,37.7 				"/>
			</g>
		</mask>
		<polygon class="st2" points="49,18.1 48,16.3 42.2,12.7 41.9,12.6 23.2,1.2 14.1,6.8 -0.4,29.1 0.7,37.6 10.7,37.7 17.3,34.3 
			24.1,33.3 50,17.5 		"/>
	</g>
	<polygon class="st3" points="40,22.5 45.3,25.6 45.3,22 40,18.9 	"/>
	<path class="st3" d="M40.4,22.3l4.8,2.9V22L40.4,19V22.3z M45.4,25.8C45.4,25.8,45.3,25.7,45.4,25.8l-5.2-3.2
		c-0.1,0-0.1-0.1-0.1-0.2v-3.7c0-0.1,0-0.1,0.1-0.2c0.1,0,0.1,0,0.2,0l5.1,3.1c0.1,0,0.1,0.1,0.1,0.2v3.7
		C45.6,25.6,45.5,25.7,45.4,25.8C45.5,25.7,45.4,25.8,45.4,25.8L45.4,25.8z"/>
	<path class="st3" d="M40.9,23.9c0.8-0.5,1.5-0.5,2-0.2l1.8,1.1c-0.5-0.3-1.2-0.3-2,0.2c-1.6,0.9-2.8,3.3-2.8,5.2
		c0,0.9,0.3,1.6,0.8,1.9L38.9,31c-0.5-0.3-0.8-1-0.8-1.9C38.1,27.2,39.3,24.9,40.9,23.9"/>
	<polygon class="st3" points="15.5,39.1 20.6,42.2 20.6,38.5 15.5,35.4 	"/>
	<path class="st3" d="M15.7,39l4.8,2.9v-3.3l-4.8-2.9V39z M20.6,42.4C20.6,42.4,20.6,42.4,20.6,42.4l-5.2-3.2
		c-0.1,0-0.1-0.1-0.1-0.2v-3.7c0-0.1,0-0.1,0.1-0.2c0.1,0,0.1,0,0.2,0l5.1,3.1c0.1,0,0.1,0.1,0.1,0.2v3.7
		C20.8,42.3,20.8,42.4,20.6,42.4C20.7,42.4,20.7,42.4,20.6,42.4L20.6,42.4z"/>
	<path class="st3" d="M15.8,39.3c0.8-0.5,1.5-0.5,2-0.2l1.8,1.1c-0.5-0.3-1.2-0.3-2,0.2c-1.6,0.9-2.8,3.3-2.8,5.2
		c0,0.9,0.3,1.6,0.8,1.9l-1.8-1.1c-0.5-0.3-0.8-1-0.8-1.9C12.9,42.5,14.2,40.2,15.8,39.3"/>
	<path class="st3" d="M17.6,41.6c1-0.6,1.8-0.1,1.8,1.1c0,1.2-0.8,2.7-1.8,3.3c-1,0.6-1.8,0.1-1.8-1.1S16.6,42.2,17.6,41.6"/>
	<g transform="translate(15.176 38.629)">
		<defs>
			<filter id="Adobe_OpacityMaskFilter_1_" filterUnits="userSpaceOnUse">
				<feColorMatrix  type="matrix" values="1 0 0 0 0  0 1 0 0 0  0 0 1 0 0  0 0 0 1 0"/>
			</filter>
		</defs>
		<mask maskUnits="userSpaceOnUse" id="danfo3d-d_1_">
			<g class="st4">
				<polygon id="danfo3d-c_1_" class="st1" points="-0.4,1.4 5.2,1.4 5.2,9 -0.4,9 				"/>
			</g>
		</mask>
		<path class="st5" d="M2.4,7.4C1.4,8,0.6,7.5,0.6,6.3S1.4,3.6,2.4,3s1.8-0.1,1.8,1.1S3.4,6.8,2.4,7.4 M-0.4,6.9
			c0,0.9,0.3,1.6,0.8,1.9l0,0c0,0,0,0,0,0c0.5,0.3,1.2,0.3,2-0.2c1.6-0.9,2.8-3.3,2.8-5.2c0-0.9-0.3-1.6-0.8-1.9c0,0,0,0,0,0l0,0
			c-0.5-0.3-1.2-0.3-2,0.2C0.8,2.7-0.4,5-0.4,6.9"/>
	</g>
	<path class="st6" d="M48.3,9.4L24.3,24c0,0-0.4,0.6-0.8,1.5l0,0l0,0c0,0,0,0,0,0v0c-0.5,0.9-1.1,2.1-1.7,3.2c-1.1,2.1-1.7,4-1.7,4
		s-1.3,1.1-2.8,2.5c-1.5,1.4-3.6,4.1-3.8,4.4c-0.2,0.3-0.2,0.7-0.2,0.7v3.4v3l0.8-0.5c0-0.7-0.1-1.9,0.3-3.1
		c0.3-1.3,1.1-2.7,2.8-3.7c1.4-0.9,2.2-0.5,2.7,0.2c0.6,0.9,0.7,2.3,0.7,2.7l18.5-11.7c0-1.5,0.3-2.7,0.6-3.6c0.8-2.1,2.2-3,2.8-3.3
		c1.5-0.9,2.2-0.7,2.6-0.1c0.4,0.8,0.1,2.3,0.3,1.9l3.9-2.4l0.4-2.5v-5.3C49.8,11.4,48.3,9.4,48.3,9.4"/>
	<path class="st3" d="M23.7,25.6L23.7,25.6c-0.5,0.8-1.1,2-1.7,3.2c-1,2.1-1.7,4-1.7,4l-0.1,0.1c0,0-1.3,1.1-2.8,2.5
		c-1.5,1.4-3.6,4.1-3.8,4.3c-0.1,0.2-0.1,0.5-0.1,0.6v6.1l0.4-0.3c0-0.1,0-0.1,0-0.2c0-0.7,0-1.7,0.3-2.8c0.4-1.6,1.4-2.9,2.9-3.9
		c1.6-1,2.5-0.4,3,0.3c0.5,0.8,0.7,1.9,0.7,2.5L39,30.4c0-1.3,0.2-2.5,0.6-3.5c0.9-2.2,2.4-3.1,2.9-3.4c0.9-0.6,1.6-0.7,2.1-0.6
		c0.3,0.1,0.5,0.3,0.7,0.6c0.3,0.5,0.3,1.3,0.3,1.7l3.6-2.2l0.4-2.4l0-5.3c0-3.2-1-5.2-1.4-5.7L24.5,24.2
		C24.4,24.3,24.1,24.9,23.7,25.6L23.7,25.6z M13.4,46.9l-0.3-0.2v-6.4c0-0.1,0-0.6,0.2-0.9c0.2-0.3,2.3-3,3.8-4.4
		c1.3-1.2,2.6-2.3,2.8-2.5c0.1-0.3,0.8-2.1,1.7-4c0.5-1.1,1.2-2.3,1.7-3.2l0,0l0,0l0,0c0.5-0.9,0.8-1.5,0.8-1.5l0.1-0.1L48.2,9.2
		l0.2,0c0.1,0.1,1.5,2.1,1.5,6.1v5.3l-0.4,2.5l-0.1,0.1l-3.9,2.4c-0.1,0.1-0.2,0.1-0.2,0.1c-0.2,0-0.2-0.2-0.2-0.5
		c0-0.4,0-1.1-0.2-1.6c-0.1-0.2-0.3-0.3-0.5-0.4c-0.4-0.1-1,0.1-1.8,0.6C42.2,24.1,40.8,25,40,27c-0.4,1-0.6,2.2-0.6,3.5l-0.1,0.2
		L20.7,42.4l-0.3-0.2c0-0.4-0.1-1.7-0.7-2.6c-0.5-0.8-1.3-0.9-2.5-0.2c-1.4,0.9-2.3,2.1-2.7,3.6c-0.3,1.1-0.3,2.1-0.2,2.7
		c0,0.1,0,0.2,0,0.3l-0.1,0.2L13.4,46.9z"/>
	<path class="st3" d="M50.7,20.6L50.7,20.6l-1-0.6v0.6l-0.4,2.5l0.9-0.5C50.3,21.8,50.9,21.6,50.7,20.6"/>
	<path class="st3" d="M49.9,20.3v0.3l-0.3,2.1l0.4-0.3c0-0.3,0.1-0.6,0.3-0.8c0.1-0.3,0.3-0.5,0.2-1L49.9,20.3z M49.4,23.3
		c0,0-0.1,0-0.1,0c-0.1,0-0.1-0.1-0.1-0.2l0.4-2.5l0-0.6c0-0.1,0-0.1,0.1-0.2c0.1,0,0.1,0,0.2,0l1,0.6c0.1,0,0.1,0.1,0.1,0.2
		c0.1,0.6-0.1,1-0.3,1.3c-0.1,0.2-0.2,0.4-0.2,0.7c0,0.1,0,0.1-0.1,0.2L49.4,23.3C49.5,23.3,49.4,23.3,49.4,23.3L49.4,23.3z
		 M27.5,24.2l-2.2,1.3c-0.7,0.5-2.8,5.3-3.3,7.1c-0.1,0.2,0.2,0.4,0.3,0.3l5.1-3.1c0.1,0,0.1-0.1,0.2-0.2c0-0.1,0.1-0.2,0.1-0.3
		v-4.9C27.8,24.2,27.7,24.1,27.5,24.2"/>
	<path class="st6" d="M-0.4,37l0.7-1.2v-3.4c0,0,0-0.5,0.2-0.7c0.2-0.3,2.3-3,3.8-4.4s2.8-2.5,2.8-2.5s0.7-1.9,1.7-4
		c1.1-2.1,2.5-4.6,2.5-4.6L35.3,1.4l13,7.9L24.3,24c0,0-1.4,2.5-2.5,4.6c-1.1,2.1-1.7,4-1.7,4s-1.3,1.1-2.8,2.5
		c-1.5,1.4-3.6,4.1-3.8,4.4c-0.2,0.3-0.2,0.7-0.2,0.7v2.9v0.5l-0.7,1.2c0,0,0,0.7,0.1,0.8c0.2,0.1,0.6,1,0.6,1l-13-7.9
		c0,0-0.4-0.9-0.6-1S-0.4,37-0.4,37l20.5-16.2"/>
	<path class="st3" d="M0.5,38.6l12.4,7.6c-0.1-0.1-0.2-0.3-0.2-0.3c-0.3-0.1-0.3-0.7-0.2-1c0,0,0-0.1,0-0.1l0.7-1.1v-3.4
		c0-0.1,0-0.6,0.2-0.9c0.2-0.3,2.3-3,3.8-4.4c1.3-1.2,2.6-2.3,2.8-2.5c0.1-0.3,0.8-2.1,1.7-4c1-2.1,2.5-4.6,2.5-4.7
		c0,0,0-0.1,0.1-0.1L47.9,9.4L35.3,1.7L11.5,16.2c-0.2,0.3-1.5,2.6-2.5,4.6c-1,2.1-1.7,4-1.7,4c0,0,0,0.1-0.1,0.1
		c0,0-1.3,1.1-2.8,2.5c-1.5,1.4-3.6,4.1-3.8,4.3c-0.1,0.2-0.1,0.5-0.1,0.6v3.4c0,0,0,0.1,0,0.1L-0.2,37c0,0.3,0,0.5,0.1,0.6
		C0,37.7,0.3,38.3,0.5,38.6 M13.3,46.9C13.3,46.9,13.3,46.9,13.3,46.9l-13.1-8c0,0-0.1-0.1-0.1-0.1C0,38.5-0.3,38-0.4,38
		c-0.3-0.1-0.3-0.7-0.2-1c0,0,0-0.1,0-0.1l0.7-1.1v-3.4c0-0.1,0-0.6,0.2-0.9c0.2-0.3,2.3-3,3.8-4.4c1.3-1.2,2.6-2.3,2.8-2.5
		c0.1-0.3,0.8-2.1,1.7-4c1-2.1,2.5-4.6,2.5-4.7c0,0,0-0.1,0.1-0.1L35.2,1.3c0.1,0,0.1,0,0.2,0l13,7.9c0.1,0,0.1,0.1,0.1,0.2
		c0,0.1,0,0.1-0.1,0.2L24.5,24.2c-0.2,0.3-1.5,2.6-2.5,4.6c-1,2.1-1.7,4-1.7,4c0,0,0,0.1-0.1,0.1c0,0-1.3,1.1-2.8,2.5
		c-1.5,1.4-3.6,4.1-3.8,4.3c-0.1,0.2-0.1,0.5-0.1,0.6v3.4c0,0,0,0.1,0,0.1L12.8,45c0,0.3,0,0.5,0.1,0.6c0.2,0.1,0.7,1,0.7,1.1
		C13.5,46.8,13.5,46.8,13.3,46.9C13.4,46.9,13.4,46.9,13.3,46.9"/>
	<path class="st3" d="M8.3,24.7c0,0,0.6-1.6,1.5-3.5c0.9-1.9,2.2-4,2.2-4l11.3,6.9c0,0-1.2,2.2-2.2,4c-0.9,1.9-1.5,3.5-1.5,3.5
		L8.3,24.7z"/>
	<path class="st3" d="M8.5,24.6l10.9,6.7c0.2-0.5,0.7-1.8,1.4-3.3c0.8-1.5,1.7-3.3,2.1-3.9L12,17.5c-0.3,0.5-1.3,2.3-2.1,3.9
		C9.2,22.8,8.7,24.2,8.5,24.6L8.5,24.6z M19.4,31.8L8.2,24.9l-0.1-0.2c0,0,0.6-1.7,1.5-3.5c0.9-1.8,2.1-4,2.2-4L12,17l11.3,6.9
		l0.1,0.3c0,0-1.2,2.2-2.1,4c-0.9,1.8-1.5,3.5-1.5,3.5L19.4,31.8z"/>
	<polygon class="st1" points="9.8,40.6 12.4,42.2 12.4,40.1 9.8,38.6 	"/>
	<path class="st3" d="M10,40.5l2.1,1.3v-1.6L10,38.9V40.5z M12.4,42.4C12.3,42.4,12.3,42.4,12.4,42.4l-2.6-1.6
		c-0.1,0-0.1-0.1-0.1-0.2v-2c0-0.1,0-0.1,0.1-0.2c0.1,0,0.1,0,0.2,0l2.5,1.5c0.1,0,0.1,0.1,0.1,0.2v2C12.5,42.2,12.5,42.3,12.4,42.4
		C12.4,42.4,12.4,42.4,12.4,42.4L12.4,42.4z"/>
	<polygon class="st1" points="1.2,35.4 3.7,36.9 3.7,34.9 1.2,33.3 	"/>
	<path class="st3" d="M1.4,35.2l2.1,1.3V35l-2.1-1.3V35.2z M3.7,37.1C3.7,37.1,3.6,37.1,3.7,37.1l-2.6-1.6C1,35.5,1,35.4,1,35.4v-2
		c0-0.1,0-0.1,0.1-0.2c0.1,0,0.1,0,0.2,0l2.5,1.5c0.1,0,0.1,0.1,0.1,0.2v2C3.9,37,3.8,37,3.7,37.1C3.8,37.1,3.7,37.1,3.7,37.1
		L3.7,37.1z"/>
	<polygon class="st3" points="-0.4,37 0.3,35.8 13.3,43.7 12.6,44.9 	"/>
	<path class="st3" d="M-0.1,36.9l12.7,7.7l0.5-0.8L0.4,36.1L-0.1,36.9z M12.6,45.1C12.6,45.1,12.5,45.1,12.6,45.1l-13.1-8
		c0,0-0.1-0.1-0.1-0.1c0-0.1,0-0.1,0-0.2l0.7-1.2c0.1-0.1,0.2-0.1,0.2-0.1l13,7.9c0,0,0.1,0.1,0.1,0.1c0,0.1,0,0.1,0,0.2L12.8,45
		C12.7,45.1,12.7,45.1,12.6,45.1L12.6,45.1z"/>
	<path class="st3" d="M-0.4,37l13,7.9l0.7-1.2l0.4,1.1v1.6l-0.4,0.2l-13-7.9c0,0-0.4-0.9-0.6-1C-0.4,37.7-0.4,37-0.4,37"/>
	<path class="st3" d="M0.5,38.6l12.9,7.9l0.2-0.1v-1.5l-0.2-0.7L12.8,45c-0.1,0.1-0.2,0.1-0.2,0.1l-12.7-7.8c0,0.1,0,0.3,0.1,0.3
		C0,37.7,0.3,38.3,0.5,38.6 M13.3,46.9C13.3,46.9,13.3,46.9,13.3,46.9l-13.1-8c0,0-0.1,0-0.1-0.1C0,38.5-0.3,38-0.4,38
		c-0.3-0.1-0.3-0.7-0.2-1c0-0.1,0-0.1,0.1-0.2c0.1,0,0.1,0,0.2,0l12.9,7.8l0.6-1c0-0.1,0.1-0.1,0.2-0.1c0.1,0,0.1,0.1,0.2,0.1
		l0.4,1.1c0,0,0,0,0,0.1v1.6c0,0.1,0,0.1-0.1,0.2L13.3,46.9C13.4,46.9,13.4,46.9,13.3,46.9 M18.8,14.1l8.7,5.3l16.4-10l-8.7-5.3
		L18.8,14.1z M27.5,19.8C27.4,19.8,27.4,19.8,27.5,19.8l-9.2-5.6c-0.1,0-0.1-0.1-0.1-0.2c0-0.1,0-0.1,0.1-0.2L35.1,3.7
		c0.1,0,0.1,0,0.2,0l9.1,5.5c0.1,0,0.1,0.1,0.1,0.2c0,0.1,0,0.1-0.1,0.2L27.5,19.8C27.5,19.8,27.5,19.8,27.5,19.8L27.5,19.8z
		 M28.3,22.7c-1.3,0.8-2.8,1.8-2.8,1.8c-2,1.4-4.9,9.7-4.9,11.8c0,1.2,0.7,3.3,1,3.9l6.8-4.3V22.7z M21.4,40.7
		C21.4,40.7,21.4,40.7,21.4,40.7c-0.1,0-0.2-0.1-0.2-0.1c0-0.1-1.1-2.8-1.1-4.3c0-2.3,3-10.7,5.1-12.2c0,0,1.8-1.1,3.1-1.9
		c0.1,0,0.1,0,0.2,0c0.1,0,0.1,0.1,0.1,0.2v13.7c0,0.1,0,0.1-0.1,0.2L21.4,40.7C21.5,40.7,21.5,40.7,21.4,40.7L21.4,40.7z
		 M42.7,26.3c1-0.6,1.8-0.1,1.8,1.1s-0.8,2.7-1.8,3.3c-1,0.6-1.8,0.1-1.8-1.1S41.7,26.9,42.7,26.3"/>
	<path class="st1" d="M42.7,30.7c-1,0.6-1.8,0.1-1.8-1.1c0-1.2,0.8-2.7,1.8-3.3c1-0.6,1.8-0.1,1.8,1.1
		C44.5,28.6,43.7,30.1,42.7,30.7 M39.9,30.2c0,0.9,0.3,1.6,0.8,1.9l0,0c0,0,0,0,0,0c0.5,0.3,1.2,0.3,2-0.2c1.6-0.9,2.8-3.3,2.8-5.2
		c0-0.9-0.3-1.6-0.8-1.9l0,0l0,0c-0.5-0.3-1.2-0.3-2,0.2C41.1,26,39.9,28.3,39.9,30.2"/>
	<polygon class="st7" points="9.2,40.3 4.4,37.3 4.4,35.3 9.2,38.2 	"/>
	<path class="st3" d="M4.6,37.2L9,39.9v-1.6l-4.4-2.7V37.2z M9.2,40.5C9.1,40.5,9.1,40.5,9.2,40.5l-4.9-3c-0.1,0-0.1-0.1-0.1-0.2v-2
		c0-0.1,0-0.1,0.1-0.2c0.1,0,0.1,0,0.2,0l4.8,2.9c0.1,0,0.1,0.1,0.1,0.2v2C9.4,40.3,9.3,40.4,9.2,40.5C9.2,40.5,9.2,40.5,9.2,40.5
		L9.2,40.5z M48.2,17l-18,11c-0.2,0.1-0.5,0-0.5-0.3v-4.3c0-0.2,0.1-0.5,0.3-0.6l17.1-10.5c0.3-0.2,0.6,0,0.7,0.3l0.6,3.9
		C48.4,16.7,48.3,16.9,48.2,17"/>
	<g transform="translate(14 17)">
		<polyline class="st8" points="35.4,2.9 14.8,15.6 -0.6,24.9 		"/>
		<polyline class="st8" points="35.4,1.2 14.8,13.9 -0.6,23.2 		"/>
	</g>
</g>
</svg>
